<svg xmlns="http://www.w3.org/2000/svg"  width="30" height="30"  viewBox="0 0 496 496" style="enable-background:new 0 0 496 496" xml:space="preserve"><path style="fill:#3757a6" d="M0 304v65.6C0 396.8 21.6 416 48 416h400c26.4 0 48-19.2 48-46.4V304H0z"/><path style="fill:#e73b36" d="M448 80H48C21.6 80 0 99.2 0 126.4V192h496v-65.6c0-27.2-21.6-46.4-48-46.4z"/><path style="fill:#e9eff4" d="M0 192h496v112H0z"/><path style="fill:#234891" d="M446.4 416c26.4 0 49.6-19.2 49.6-46.4V304H315.2l131.2 112z"/><path style="fill:#d82121" d="M448 80H48l132.8 112H496v-65.6c0-27.2-21.6-46.4-48-46.4z"/><path style="fill:#cfdce5" d="M316 304h180V192H180z"/><path style="fill:#c10a0a" d="M448 80H48l370.4 112H496v-65.6c0-27.2-21.6-46.4-48-46.4z"/><path style="fill:#bcced8" d="M496 214.4V192h-81.6z"/><path style="fill:#234891" d="M496 368.8c0 28.8-21.6 47.2-48 47.2H48c-26.4 0-48-20.8-48-48"/></svg>