<svg xmlns="http://www.w3.org/2000/svg" width="30" height="30"  viewBox="0 0 496 496" style="enable-background:new 0 0 496 496" xml:space="preserve"><path style="fill:#060" d="M162.4 77.6H48c-26.4 0-48 21.6-48 48.8v243.2c0 27.2 21.6 48.8 48 48.8h115.2V77.6h-.8z"/><path style="fill:red" d="M448 77.6H162.4v340.8H448c26.4 0 48-21.6 48-48.8V126.4c0-27.2-21.6-48.8-48-48.8z"/><path style="fill:#e20000" d="M448 77.6H162.4v97.6L332.8 320 448 418.4c26.4 0 48-21.6 48-48.8V126.4c0-27.2-21.6-48.8-48-48.8z"/><path style="fill:#004f00" d="M162.4 77.6H48l114.4 97.6z"/><path style="fill:#ce0000" d="M333.6 369.6H162.4v48.8H448c26.4 0 48-21.6 48-48.8H333.6z"/><path style="fill:#013f01" d="M0 369.6c0 27.2 21.6 48.8 48 48.8h115.2v-48.8H0z"/><path style="fill:#ce0000" d="M448 77.6H162.4v35.2l170.4 52L496 214.4v-88c0-27.2-21.6-48.8-48-48.8z"/><path style="fill:#013f01" d="M162.4 77.6H48l114.4 35.2z"/><circle style="fill:#fff" cx="163.2" cy="243.2" r="68.8"/><path style="fill:#f2efce" d="M163.2 173.6c38.4 0 68.8 31.2 68.8 68.8 0 38.4-31.2 68.8-68.8 68.8"/><path style="fill:#c60606" d="M116.8 256.8c0 12 4.8 23.2 13.6 32 8 8 19.2 13.6 32 13.6 12 0 24-4.8 32-12.8s13.6-19.2 13.6-32v-60.8h-90.4l-.8 60m72-42.4V260c-.8 6.4-3.2 11.2-8 15.2-4.8 4.8-12 8-19.2 8s-13.6-3.2-19.2-8c-4.8-4.8-8-12-8-19.2v-42.4l54.4.8"/><path style="fill:red" d="M116.8 256.8c0 12 4.8 23.2 13.6 32 8 8 19.2 13.6 32 13.6v-17.6c-7.2 0-13.6-3.2-19.2-8-4.8-4.8-8-12-8-19.2v-42.4h27.2v-18.4h-44.8l-.8 60z"/><path style="fill:#1477ef" d="M156.8 249.6c0 1.6.8 3.2 1.6 4.8.8.8 2.4 1.6 4 1.6s3.2-.8 4-1.6c.8-.8 1.6-2.4 1.6-4.8v-8.8h-12l.8 8.8zm0 20.8c0 1.6.8 3.2 1.6 4.8.8.8 2.4 1.6 4 1.6s3.2-.8 4-1.6c1.6-1.6 1.6-3.2 1.6-4.8v-8.8h-12l.8 8.8zM140 249.6c0 1.6.8 3.2 1.6 4.8.8.8 2.4 1.6 4 1.6s3.2-.8 4-1.6c.8-.8 1.6-2.4 1.6-4.8v-8.8h-12l.8 8.8z"/><path style="fill:#005cb7" d="M184.8 249.6v-8.8h-12v8.8c0 1.6.8 3.2 1.6 4.8.8.8 2.4 1.6 4 1.6s3.2-.8 4-1.6 2.4-2.4 2.4-4.8z"/><path style="fill:#1477ef" d="M158.4 233.6c.8.8 2.4 1.6 4 1.6s3.2-.8 4-1.6 1.6-2.4 1.6-4.8V220h-12v8.8c.8 2.4 1.6 4 2.4 4.8z"/><path style="fill:#ff0" d="M119.2 212.8h13.6s.8 0 .8-.8c0 0 0-.8-.8-.8h-3.2 3.2l-.8-4.8s.8 0 .8-.8c0 0 0-.8-.8-.8h-12s-.8 0-.8.8c0 0 0 .8.8.8v4.8h3.2-3.2c-.8 0-.8.8-.8 1.6zm4.8-4.8c-.8.8-.8 1.6-.8 2.4 0-.8.8-1.6.8-2.4zm.8-8.8h3.2s.8 0 .8-.8v-1.6h-.8v.8h-.8v-.8h-.8v.8h-.8v-.8h-.8v2.4c-.8 0-.8 0 0 0zm44 12h-3.2 3.2l-.8-4.8s.8 0 .8-.8c0 0 0-.8-.8-.8h-12s-.8 0-.8.8c0 0 0 .8.8.8l-.8 4.8h3.2-3.2s-.8 0-.8.8c0 0 0 .8.8.8h13.6c.8 0 .8 0 0-1.6.8.8.8 0 0 0zm-9.6-.8c0-.8.8-1.6.8-2.4 0 .8-.8 1.6-.8 2.4z"/><path style="fill:#ff0" d="M120 205.6h12.8s.8 0 .8-.8c0 0 0-.8-.8-.8H120c-.8.8-.8.8 0 1.6-.8 0-.8 0 0 0z"/><path style="fill:#ff0" d="M128 199.2h-3.2v5.6h3.2v-5.6zm.8 2.4v3.2h3.2v-3.2z"/><path style="fill:#ff0" d="M129.6 200H128v1.6s0 .8.8.8h3.2s.8 0 .8-.8V200h-3.2zm-9.6 1.6h4s.8 0 .8-.8v-.8H120v1.6zm.8 3.2h3.2l-.8-3.2h-2.4zm35.2.8h12.8s.8 0 .8-.8c0 0 0-.8-.8-.8H156c0 .8-.8.8 0 1.6-.8 0 0 0 0 0zm4.8-6.4h3.2s.8 0 .8-.8v-1.6h-.8v.8h-.8v-.8h-.8v.8h-.8v-.8H160l.8 2.4c-.8 0 0 0 0 0z"/><path style="fill:#ff0" d="M164 199.2h-3.2v5.6h3.2v-5.6zm.8 2.4v3.2h3.2v-3.2z"/><path style="fill:#ff0" d="M165.6 200h-.8v1.6s0 .8.8.8h2.4s.8 0 .8-.8V200h-3.2zm-8.8 1.6h3.2s.8 0 .8-.8v-.8h-4v1.6c-.8 0-.8 0 0 0zm0 0v3.2h3.2v-3.2z"/><path style="fill:#ffe600" d="M191.2 212.8h13.6s.8 0 .8-.8c0 0 0-.8-.8-.8h-3.2 3.2l-.8-4.8s.8 0 .8-.8c0 0 0-.8-.8-.8h-12s-.8 0-.8.8c0 0 0 .8.8.8v4.8h3.2-3.2c-.8 0-.8.8-.8 1.6zm4.8-4.8c-.8.8-.8 1.6-.8 2.4 0-.8.8-1.6.8-2.4z"/><path style="fill:#ffe600" d="M192 205.6h12.8s.8 0 .8-.8c0 0 0-.8-.8-.8H192c-.8.8-.8.8 0 1.6-.8 0-.8 0 0 0zm4.8-6.4h3.2s.8 0 .8-.8v-1.6h-.8v.8h-.8v-.8h-.8v.8h-.8v-.8h-.8v2.4c-.8 0-.8 0 0 0z"/><path style="fill:#ffe600" d="M200 199.2h-3.2v5.6h3.2v-5.6zm.8 2.4v3.2h3.2v-3.2z"/><path style="fill:#ffe600" d="M200.8 200h-.8v1.6s0 .8.8.8h3.2s.8 0 .8-.8V200h-4zm-8.8 1.6h4s.8 0 .8-.8v-1.6h-.8v.8h-4v1.6zm.8 0-.8 3.2h3.2v-3.2z"/><path style="fill:#ff0" d="M133.6 248.8s0-.8 0 0l-4-.8 4 .8-1.6-5.6s.8 0 .8-.8 0-.8-.8-.8h-12s-.8 0-.8.8 0 .8.8.8v4.8h3.2-3.2s-.8 0-.8.8c0 0 0 .8.8.8l13.6-.8c0 .8 0 0 0 0zm-10.4-1.6c0-.8.8-1.6.8-2.4 0 .8-.8 1.6-.8 2.4z"/><path style="fill:#ff0" d="M132.8 240.8H120s-.8 0-.8.8c0 0 0 .8.8.8h12.8v-1.6c0 .8 0 0 0 0zm-8.8-7.2v1.6s0 .8.8.8h3.2s.8 0 .8-.8v-1.6h-.8v.8h-.8v-.8h-.8v.8h-.8v-.8H124z"/><path style="fill:#ff0" d="M128 236h-3.2v4.8h3.2V236zm4 2.4h-3.2v2.4h3.2v-2.4zm-2.4-2.4h-.8v1.6s0 .8.8.8h3.2s.8 0 .8-.8V236h-.8v.8h-.8v-.8h-2.4zm-9.6 0v1.6h3.2s.8 0 .8-.8v-1.6h-.8v.8h-.8v-.8h-.8v.8h-.8v-.8h-.8v.8zm.8 2.4v2.4h3.2l-.8-2.4z"/><path style="fill:#ffe600" d="m195.2 280-.8-.8-2.4 1.6 2.4 2.4 1.6-1.6z"/><path style="fill:#ffe600" d="M185.6 274.4c-.8 0-.8.8-.8.8l8.8 8.8h.8v-.8l-8.8-8.8z"/><path style="fill:#ffe600" d="m193.6 284-8.8-8.8h-.8v.8l-4 3.2 2.4 2.4-2.4-2.4h-.8v.8l9.6 9.6h.8v-.8l-2.4-2.4 2.4 2.4 3.2-4 .8-.8c0 1.6 0 1.6 0 0 0 .8 0 .8 0 0zm-9.6-3.2c.8-.8 1.6-.8 2.4-.8-.8 0-1.6.8-2.4.8zm8.8-7.2s0 .8 0 0l2.4 3.2h.8l.8-.8-.8-.8-.8.8-.8-.8.8-.8-.8-.8-.8.8-.8-.8.8-.8-.8-.8v1.6zm-4 4 2.4 2.4 4-3.2-2.4-2.4z"/><path style="fill:#ffe600" d="M197.6 279.2h-.8.8l-.8-.8-.8.8-.8-.8.8-.8-.8-.8-.8.8v.8l2.4 2.4h.8v-1.6zm-7.2-4c.8 0 .8 0 0 0l1.6-.8-.8-.8-.8.8-.8-.8.8-.8-.8-.8-.8.8-.8-.8.8-.8-.8-.8v2.4l2.4 2.4zm-1.6 2.4 1.6-2.4-2.4-2.4-1.6 2.4zm16-29.6h-3.2 3.2l-.8-4.8s.8 0 .8-.8 0-.8-.8-.8h-12s-.8 0-.8.8 0 .8.8.8v4.8h3.2-3.2s-.8 0-.8.8c0 0 0 .8.8.8h13.6c-.8 0 0-.8-.8-1.6.8.8 0 0 0 0zm-9.6-.8c0-.8.8-1.6.8-2.4-.8.8-.8 1.6-.8 2.4z"/><path style="fill:#ffe600" d="M204.8 240.8H192s-.8 0-.8.8c0 0 0 .8.8.8h12.8v-1.6c0 .8 0 .8 0 0 0 .8 0 0 0 0zm-8.8-7.2v1.6s0 .8.8.8h3.2s.8 0 .8-.8v-1.6h-.8v.8h-.8v-.8h-.8v.8h-.8v-.8H196z"/><path style="fill:#ffe600" d="M199.2 236h-2.4l-.8 4.8h4l-.8-4.8zm4.8 2.4h-3.2v2.4h3.2v-2.4z"/><path style="fill:#ffe600" d="M200.8 236h-.8v1.6s0 .8.8.8h3.2s.8 0 .8-.8V236h-.8v.8h-.8v-.8h-2.4zm-8 0h-.8v1.6h3.2s.8 0 .8-.8v-1.6h-.8v.8h-.8v-.8l-1.6.8zm-.8 2.4v2.4h3.2v-2.4z"/><path style="fill:#ff0" d="m138.4 275.2-2.4-2.4-1.6 2.4 1.6 2.4z"/><path style="fill:#ff0" d="M144.8 279.2c-.8 0-.8 0 0 0l-3.2 2.4 3.2-2.4-4-3.2v-.8h-.8v-.8h-.8l-8.8 8.8v1.6l3.2 4 2.4-2.4-2.4 2.4v.8h.8l9.6-9.6c.8 0 .8 0 .8-.8zm-9.6 4c0 .8 0 1.6.8 2.4 0-.8-.8-1.6-.8-2.4zm-7.2-8 .8.8h.8l2.4-2.4v-.8l-1.6-.8.8.8-.8.8-.8-.8-.8.8.8.8-.8.8h-.8zm4-.8zm0 0-2.4 2.4 3.2 3.2 2.4-2.4zm1.6-1.6v.8-.8l-.8.8.8.8h.8l2.4-2.4v-.8l-.8-.8-1.6 1.6.8.8-.8.8-.8-.8zm-3.2 5.6-.8-.8-.8.8.8.8-.8.8-.8-1.6v.8l.8.8h-.8l-.8-.8-.8.8.8.8h.8l2.4-2.4z"/><path style="fill:#ff0" d="m132.8 280.8-2.4-1.6-2.4 1.6 2.4 2.4z"/><path style="fill:#ffe600" d="M162.4 169.6c-43.2 0-78.4 35.2-78.4 78.4s35.2 78.4 78.4 78.4 78.4-35.2 78.4-78.4-36-78.4-78.4-78.4zm47.2 24.8v62.4c0 12.8-5.6 24.8-13.6 32.8-8.8 8.8-20 13.6-33.6 13.6-12.8 0-24.8-5.6-32.8-13.6-8.8-8.8-13.6-20-13.6-32.8v-62.4h93.6z"/><path style="fill:#ff0" d="M84 248c0 43.2 35.2 78.4 78.4 78.4V304c-12.8 0-24.8-5.6-32.8-13.6-8.8-8.8-13.6-20-13.6-32.8v-62.4h47.2v-24c-44-1.6-79.2 33.6-79.2 76.8z"/><path style="fill:#005cb7" d="M162.4 256c1.6 0 3.2-.8 4.8-1.6.8-.8 1.6-2.4 1.6-4.8v-8.8h-6.4V256zm0-20c1.6 0 3.2-.8 4.8-1.6s1.6-2.4 1.6-4.8v-8.8h-6.4V236zm0 40.8c1.6 0 3.2-.8 4.8-1.6s1.6-2.4 1.6-4.8v-8.8h-6.4v15.2z"/></svg>